<?xml version="1.0" encoding="UTF-8"?>
<svg width="1200" height="800" xmlns="http://www.w3.org/2000/svg">
  <style>
    .axis { stroke: #333; stroke-width: 1; }
    .grid { stroke: #ddd; stroke-width: 0.5; }
    .label { font-family: Arial, sans-serif; font-size: 14px; fill: #333; }
    .title { font-family: Arial, sans-serif; font-size: 16px; font-weight: bold; fill: #333; }
    .subtitle { font-family: Arial, sans-serif; font-size: 12px; fill: #666; }
    .register-mean { stroke: #e74c3c; stroke-width: 3; fill: none; }
    .lookup-mean { stroke: #3498db; stroke-width: 3; fill: none; }
    .register-band { fill: rgba(231, 76, 60, 0.2); stroke: #e74c3c; stroke-width: 1; }
    .lookup-band { fill: rgba(52, 152, 219, 0.2); stroke: #3498db; stroke-width: 1; }
    .register-dot { fill: #e74c3c; }
    .lookup-dot { fill: #3498db; }
    .legend { font-family: Arial, sans-serif; font-size: 12px; fill: #333; }
    .axis-title { font-family: Arial, sans-serif; font-size: 16px; font-weight: bold; fill: #333; }
    .metadata-title { font-family: Arial, sans-serif; font-size: 14px; font-weight: bold; fill: #333; }
    .metadata-section { font-family: Arial, sans-serif; font-size: 14px; font-weight: bold; fill: #444; }
    .metadata-label { font-family: Arial, sans-serif; font-size: 10px; fill: #666; }
    .metadata-value { font-family: Arial, sans-serif; font-size: 10px; fill: #333; }
  </style>

  <!-- Background -->
  <rect width="1200" height="800" fill="white"/>

  <!-- Title -->
  <text x="600" y="25" text-anchor="middle" class="title">Timing of Common Registry Operations</text>
  <text x="600" y="45" text-anchor="middle" class="subtitle">Performance measurements across varying tree sizes</text>

  <!-- Plot area -->
  <g transform="translate(110,60)">

    <!-- Grid lines (logarithmic scale) -->
    <line x1="0" y1="414.21183286644987" x2="1015" y2="414.21183286644987" class="grid"/>
    <text x="-10" y="418.21183286644987" text-anchor="end" class="label">0.10µs</text>
    <line x1="0" y1="359.62470346155027" x2="1015" y2="359.62470346155027" class="grid"/>
    <text x="-10" y="363.62470346155027" text-anchor="end" class="label">0.20µs</text>
    <line x1="0" y1="287.46444348196144" x2="1015" y2="287.46444348196144" class="grid"/>
    <text x="-10" y="291.46444348196144" text-anchor="end" class="label">0.50µs</text>
    <line x1="0" y1="232.87731407706184" x2="1015" y2="232.87731407706184" class="grid"/>
    <text x="-10" y="236.87731407706184" text-anchor="end" class="label">1.0µs</text>
    <line x1="0" y1="178.29018467216224" x2="1015" y2="178.29018467216224" class="grid"/>
    <text x="-10" y="182.29018467216224" text-anchor="end" class="label">2.0µs</text>
    <line x1="0" y1="106.12992469257341" x2="1015" y2="106.12992469257341" class="grid"/>
    <text x="-10" y="110.12992469257341" text-anchor="end" class="label">5.0µs</text>
    <line x1="0" y1="0" x2="0" y2="460" class="grid"/>
    <text x="0" y="480" text-anchor="middle" class="label">10</text>
    <line x1="76.38636139973525" y1="0" x2="76.38636139973525" y2="460" class="grid"/>
    <text x="76.38636139973525" y="480" text-anchor="middle" class="label">20</text>
    <line x1="177.36363860026475" y1="0" x2="177.36363860026475" y2="460" class="grid"/>
    <text x="177.36363860026475" y="480" text-anchor="middle" class="label">50</text>
    <line x1="253.75" y1="0" x2="253.75" y2="460" class="grid"/>
    <text x="253.75" y="480" text-anchor="middle" class="label">100</text>
    <line x1="330.1363613997352" y1="0" x2="330.1363613997352" y2="460" class="grid"/>
    <text x="330.1363613997352" y="480" text-anchor="middle" class="label">200</text>
    <line x1="431.1136386002648" y1="0" x2="431.1136386002648" y2="460" class="grid"/>
    <text x="431.1136386002648" y="480" text-anchor="middle" class="label">500</text>
    <line x1="507.5" y1="0" x2="507.5" y2="460" class="grid"/>
    <text x="507.5" y="480" text-anchor="middle" class="label">1k</text>
    <line x1="583.8863613997353" y1="0" x2="583.8863613997353" y2="460" class="grid"/>
    <text x="583.8863613997353" y="480" text-anchor="middle" class="label">2k</text>
    <line x1="684.8636386002647" y1="0" x2="684.8636386002647" y2="460" class="grid"/>
    <text x="684.8636386002647" y="480" text-anchor="middle" class="label">5k</text>
    <line x1="761.25" y1="0" x2="761.25" y2="460" class="grid"/>
    <text x="761.25" y="480" text-anchor="middle" class="label">10k</text>
    <line x1="837.6363613997353" y1="0" x2="837.6363613997353" y2="460" class="grid"/>
    <text x="837.6363613997353" y="480" text-anchor="middle" class="label">20k</text>
    <line x1="938.6136386002647" y1="0" x2="938.6136386002647" y2="460" class="grid"/>
    <text x="938.6136386002647" y="480" text-anchor="middle" class="label">50k</text>
    <line x1="1015" y1="0" x2="1015" y2="460" class="grid"/>
    <text x="1015" y="480" text-anchor="middle" class="label">100k</text>
    <!-- Y-axis -->
    <line x1="0" y1="0" x2="0" y2="460" class="axis"/>

    <!-- X-axis -->
    <line x1="0" y1="460" x2="1015" y2="460" class="axis"/>

    <!-- Axis labels -->
    <text x="507.5" y="510" text-anchor="middle" class="axis-title">Tree Size (items) - Log Scale</text>
    <text transform="rotate(-90,-70,230)" x="-70" y="230" text-anchor="middle" class="axis-title">Execution Time (µs)</text>
    <path d="M 0 54.5871294048996 L 76.38636139973525 204.52223211454054 L 177.36363860026475 106.51935671032135 L 253.75 195.52814972290633 L 330.1363613997352 113.59480588788551 L 431.1136386002648 163.00101388142247 L 507.5 168.64530111783552 L 583.8863613997353 168.02389006721552 L 684.8636386002647 181.3006947529126 L 761.25 184.74259304128134 L 837.6363613997353 223.36673887164602 L 938.6136386002647 205.81985515489995 L 1015 213.90171946899312" class="register-mean"/>
    <path d="M 0 384.9149488624966 L 76.38636139973525 389.00373120422694 L 177.36363860026475 398.33522029914974 L 253.75 405.4128705951004 L 330.1363613997352 403.43324668188495 L 431.1136386002648 395.4950539384694 L 507.5 378.3221393445412 L 583.8863613997353 349.59171308701286 L 684.8636386002647 357.5457555145213 L 761.25 309.89073610809453 L 837.6363613997353 343.0099722607768 L 938.6136386002647 344.3996689209627 L 1015 339.77636216178064" class="lookup-mean"/>
    <circle cx="0" cy="54.5871294048996" r="4" class="register-dot"/>
    <circle cx="76.38636139973525" cy="204.52223211454054" r="4" class="register-dot"/>
    <circle cx="177.36363860026475" cy="106.51935671032135" r="4" class="register-dot"/>
    <circle cx="253.75" cy="195.52814972290633" r="4" class="register-dot"/>
    <circle cx="330.1363613997352" cy="113.59480588788551" r="4" class="register-dot"/>
    <circle cx="431.1136386002648" cy="163.00101388142247" r="4" class="register-dot"/>
    <circle cx="507.5" cy="168.64530111783552" r="4" class="register-dot"/>
    <circle cx="583.8863613997353" cy="168.02389006721552" r="4" class="register-dot"/>
    <circle cx="684.8636386002647" cy="181.3006947529126" r="4" class="register-dot"/>
    <circle cx="761.25" cy="184.74259304128134" r="4" class="register-dot"/>
    <circle cx="837.6363613997353" cy="223.36673887164602" r="4" class="register-dot"/>
    <circle cx="938.6136386002647" cy="205.81985515489995" r="4" class="register-dot"/>
    <circle cx="1015" cy="213.90171946899312" r="4" class="register-dot"/>
    <circle cx="0" cy="384.9149488624966" r="4" class="lookup-dot"/>
    <circle cx="76.38636139973525" cy="389.00373120422694" r="4" class="lookup-dot"/>
    <circle cx="177.36363860026475" cy="398.33522029914974" r="4" class="lookup-dot"/>
    <circle cx="253.75" cy="405.4128705951004" r="4" class="lookup-dot"/>
    <circle cx="330.1363613997352" cy="403.43324668188495" r="4" class="lookup-dot"/>
    <circle cx="431.1136386002648" cy="395.4950539384694" r="4" class="lookup-dot"/>
    <circle cx="507.5" cy="378.3221393445412" r="4" class="lookup-dot"/>
    <circle cx="583.8863613997353" cy="349.59171308701286" r="4" class="lookup-dot"/>
    <circle cx="684.8636386002647" cy="357.5457555145213" r="4" class="lookup-dot"/>
    <circle cx="761.25" cy="309.89073610809453" r="4" class="lookup-dot"/>
    <circle cx="837.6363613997353" cy="343.0099722607768" r="4" class="lookup-dot"/>
    <circle cx="938.6136386002647" cy="344.3996689209627" r="4" class="lookup-dot"/>
    <circle cx="1015" cy="339.77636216178064" r="4" class="lookup-dot"/>
    <!-- Legend -->
    <g transform="translate(20, 20)">
      <rect x="0" y="0" width="190" height="80" fill="white" stroke="#ccc" stroke-width="1"/>

      <!-- Register Instance Legend -->
      <text x="10" y="20" class="legend" font-weight="bold">Register Instance</text>
      <line x1="10" y1="30" x2="40" y2="30" class="register-mean"/>
      <circle cx="25" cy="30" r="3" class="register-dot"/>
      <text x="45" y="34" class="legend">Average Timing</text>

      <!-- Lookup Instance Legend -->
      <text x="10" y="55" class="legend" font-weight="bold">Lookup Instance</text>
      <line x1="10" y1="65" x2="40" y2="65" class="lookup-mean"/>
      <circle cx="25" cy="65" r="3" class="lookup-dot"/>
      <text x="45" y="69" class="legend">Average Timing</text>
    </g>

  </g>

  <!-- Test Metadata Section -->
  <g transform="translate(50, 620)">
    <!-- Left Column: System Information -->
    <g transform="translate(20, 20)">
      <text x="0" y="0" class="metadata-section">System Information</text>

      <text x="0" y="25" class="metadata-label">Test Date:</text>
      <text x="150" y="25" class="metadata-value">2025-07-21</text>

      <text x="0" y="45" class="metadata-label">Package Version:</text>
      <text x="150" y="45" class="metadata-value">@fjell/registry v4.4.5</text>

      <text x="0" y="65" class="metadata-label">Node.js Version:</text>
      <text x="150" y="65" class="metadata-value">v22.0.0 (darwin arm64)</text>

      <text x="0" y="85" class="metadata-label">Platform:</text>
      <text x="150" y="85" class="metadata-value">darwin arm64</text>

      <text x="0" y="105" class="metadata-label">Compiler:</text>
      <text x="150" y="105" class="metadata-value">TypeScript + Vite</text>
    </g>

    <!-- Center Column: Test Configuration -->
    <g transform="translate(330, 20)">
      <text x="0" y="0" class="metadata-section">Test Configuration</text>

      <text x="0" y="25" class="metadata-label">Test Rounds:</text>
      <text x="120" y="25" class="metadata-value">100 per tree size</text>

      <text x="0" y="45" class="metadata-label">Iterations per Round:</text>
      <text x="120" y="45" class="metadata-value">200 operations</text>

      <text x="0" y="65" class="metadata-label">Total Measurements:</text>
      <text x="120" y="65" class="metadata-value">20,000 per data point</text>
    </g>

    <!-- Right Column: Test Notes -->
    <g transform="translate(600, 20)">
      <text x="0" y="0" class="metadata-section">Test Notes</text>
      <text x="0" y="25" class="metadata-label">• Performance measurements use Node.js performance.now() with microsecond precision</text>
      <text x="0" y="42" class="metadata-label">• Each test includes warm-up iterations to minimize JIT compilation effects</text>
      <text x="0" y="59" class="metadata-label">• Logging is mocked during timing tests to eliminate I/O overhead</text>
      <text x="0" y="76" class="metadata-label">• Tests verify both mean performance and consistency (low standard deviation)</text>
      <text x="0" y="93" class="metadata-label">• Statistical analysis ensures reliable performance measurements across all tree sizes</text>
    </g>
  </g>
</svg>