<?xml version="1.0" encoding="UTF-8"?>
<svg width="1200" height="800" xmlns="http://www.w3.org/2000/svg">
  <style>
    .axis { stroke: #333; stroke-width: 1; }
    .grid { stroke: #ddd; stroke-width: 0.5; }
    .label { font-family: Arial, sans-serif; font-size: 14px; fill: #333; }
    .title { font-family: Arial, sans-serif; font-size: 16px; font-weight: bold; fill: #333; }
    .subtitle { font-family: Arial, sans-serif; font-size: 12px; fill: #666; }
    .register-mean { stroke: #e74c3c; stroke-width: 3; fill: none; }
    .lookup-mean { stroke: #3498db; stroke-width: 3; fill: none; }
    .register-band { fill: rgba(231, 76, 60, 0.2); stroke: #e74c3c; stroke-width: 1; }
    .lookup-band { fill: rgba(52, 152, 219, 0.2); stroke: #3498db; stroke-width: 1; }
    .register-dot { fill: #e74c3c; }
    .lookup-dot { fill: #3498db; }
    .legend { font-family: Arial, sans-serif; font-size: 12px; fill: #333; }
    .axis-title { font-family: Arial, sans-serif; font-size: 16px; font-weight: bold; fill: #333; }
    .metadata-title { font-family: Arial, sans-serif; font-size: 14px; font-weight: bold; fill: #333; }
    .metadata-section { font-family: Arial, sans-serif; font-size: 14px; font-weight: bold; fill: #444; }
    .metadata-label { font-family: Arial, sans-serif; font-size: 10px; fill: #666; }
    .metadata-value { font-family: Arial, sans-serif; font-size: 10px; fill: #333; }
  </style>

  <!-- Background -->
  <rect width="1200" height="800" fill="white"/>

  <!-- Title -->
  <text x="600" y="25" text-anchor="middle" class="title">Timing of Common Registry Operations</text>
  <text x="600" y="45" text-anchor="middle" class="subtitle">Performance measurements across varying tree sizes</text>

  <!-- Plot area -->
  <g transform="translate(110,60)">

    <!-- Grid lines (logarithmic scale) -->
    <line x1="0" y1="456.0002836139963" x2="1015" y2="456.0002836139963" class="grid"/>
    <text x="-10" y="460.0002836139963" text-anchor="end" class="label">0.10µs</text>
    <line x1="0" y1="399.6877756998058" x2="1015" y2="399.6877756998058" class="grid"/>
    <text x="-10" y="403.6877756998058" text-anchor="end" class="label">0.20µs</text>
    <line x1="0" y1="325.2466893944705" x2="1015" y2="325.2466893944705" class="grid"/>
    <text x="-10" y="329.2466893944705" text-anchor="end" class="label">0.50µs</text>
    <line x1="0" y1="268.93418148028" x2="1015" y2="268.93418148028" class="grid"/>
    <text x="-10" y="272.93418148028" text-anchor="end" class="label">1.0µs</text>
    <line x1="0" y1="212.6216735660895" x2="1015" y2="212.6216735660895" class="grid"/>
    <text x="-10" y="216.6216735660895" text-anchor="end" class="label">2.0µs</text>
    <line x1="0" y1="138.18058726075412" x2="1015" y2="138.18058726075412" class="grid"/>
    <text x="-10" y="142.18058726075412" text-anchor="end" class="label">5.0µs</text>
    <line x1="0" y1="0" x2="0" y2="460" class="grid"/>
    <text x="0" y="480" text-anchor="middle" class="label">10</text>
    <line x1="76.38636139973525" y1="0" x2="76.38636139973525" y2="460" class="grid"/>
    <text x="76.38636139973525" y="480" text-anchor="middle" class="label">20</text>
    <line x1="177.36363860026475" y1="0" x2="177.36363860026475" y2="460" class="grid"/>
    <text x="177.36363860026475" y="480" text-anchor="middle" class="label">50</text>
    <line x1="253.75" y1="0" x2="253.75" y2="460" class="grid"/>
    <text x="253.75" y="480" text-anchor="middle" class="label">100</text>
    <line x1="330.1363613997352" y1="0" x2="330.1363613997352" y2="460" class="grid"/>
    <text x="330.1363613997352" y="480" text-anchor="middle" class="label">200</text>
    <line x1="431.1136386002648" y1="0" x2="431.1136386002648" y2="460" class="grid"/>
    <text x="431.1136386002648" y="480" text-anchor="middle" class="label">500</text>
    <line x1="507.5" y1="0" x2="507.5" y2="460" class="grid"/>
    <text x="507.5" y="480" text-anchor="middle" class="label">1k</text>
    <line x1="583.8863613997353" y1="0" x2="583.8863613997353" y2="460" class="grid"/>
    <text x="583.8863613997353" y="480" text-anchor="middle" class="label">2k</text>
    <line x1="684.8636386002647" y1="0" x2="684.8636386002647" y2="460" class="grid"/>
    <text x="684.8636386002647" y="480" text-anchor="middle" class="label">5k</text>
    <line x1="761.25" y1="0" x2="761.25" y2="460" class="grid"/>
    <text x="761.25" y="480" text-anchor="middle" class="label">10k</text>
    <line x1="837.6363613997353" y1="0" x2="837.6363613997353" y2="460" class="grid"/>
    <text x="837.6363613997353" y="480" text-anchor="middle" class="label">20k</text>
    <line x1="938.6136386002647" y1="0" x2="938.6136386002647" y2="460" class="grid"/>
    <text x="938.6136386002647" y="480" text-anchor="middle" class="label">50k</text>
    <line x1="1015" y1="0" x2="1015" y2="460" class="grid"/>
    <text x="1015" y="480" text-anchor="middle" class="label">100k</text>
    <!-- Y-axis -->
    <line x1="0" y1="0" x2="0" y2="460" class="axis"/>

    <!-- X-axis -->
    <line x1="0" y1="460" x2="1015" y2="460" class="axis"/>

    <!-- Axis labels -->
    <text x="507.5" y="510" text-anchor="middle" class="axis-title">Tree Size (items) - Log Scale</text>
    <text transform="rotate(-90,-70,230)" x="-70" y="230" text-anchor="middle" class="axis-title">Execution Time (µs)</text>
    <path d="M 0 192.973518339041 L 76.38636139973525 224.5716943288375 L 177.36363860026475 238.3333590677383 L 253.75 227.89495166442632 L 330.1363613997352 221.4860799469021 L 431.1136386002648 246.6329789984409 L 507.5 247.7750637777958 L 583.8863613997353 256.86423138331077 L 684.8636386002647 254.2244836016484 L 761.25 250.50303788995427 L 837.6363613997353 251.02036498952035 L 938.6136386002647 229.86448527519835 L 1015 240.7327619047369" class="register-mean"/>
    <path d="M 0 383.83416477891933 L 76.38636139973525 323.39500478118885 L 177.36363860026475 319.964072613348 L 253.75 403.68749208580954 L 330.1363613997352 373.00296663083543 L 431.1136386002648 370.46890660337306 L 507.5 393.73319176426463 L 583.8863613997353 371.0745898223049 L 684.8636386002647 307.86925711562463 L 761.25 56.31250791419052 L 837.6363613997353 336.9965382226953 L 938.6136386002647 333.02158064742775 L 1015 339.6718587305876" class="lookup-mean"/>
    <circle cx="0" cy="192.973518339041" r="4" class="register-dot"/>
    <circle cx="76.38636139973525" cy="224.5716943288375" r="4" class="register-dot"/>
    <circle cx="177.36363860026475" cy="238.3333590677383" r="4" class="register-dot"/>
    <circle cx="253.75" cy="227.89495166442632" r="4" class="register-dot"/>
    <circle cx="330.1363613997352" cy="221.4860799469021" r="4" class="register-dot"/>
    <circle cx="431.1136386002648" cy="246.6329789984409" r="4" class="register-dot"/>
    <circle cx="507.5" cy="247.7750637777958" r="4" class="register-dot"/>
    <circle cx="583.8863613997353" cy="256.86423138331077" r="4" class="register-dot"/>
    <circle cx="684.8636386002647" cy="254.2244836016484" r="4" class="register-dot"/>
    <circle cx="761.25" cy="250.50303788995427" r="4" class="register-dot"/>
    <circle cx="837.6363613997353" cy="251.02036498952035" r="4" class="register-dot"/>
    <circle cx="938.6136386002647" cy="229.86448527519835" r="4" class="register-dot"/>
    <circle cx="1015" cy="240.7327619047369" r="4" class="register-dot"/>
    <circle cx="0" cy="383.83416477891933" r="4" class="lookup-dot"/>
    <circle cx="76.38636139973525" cy="323.39500478118885" r="4" class="lookup-dot"/>
    <circle cx="177.36363860026475" cy="319.964072613348" r="4" class="lookup-dot"/>
    <circle cx="253.75" cy="403.68749208580954" r="4" class="lookup-dot"/>
    <circle cx="330.1363613997352" cy="373.00296663083543" r="4" class="lookup-dot"/>
    <circle cx="431.1136386002648" cy="370.46890660337306" r="4" class="lookup-dot"/>
    <circle cx="507.5" cy="393.73319176426463" r="4" class="lookup-dot"/>
    <circle cx="583.8863613997353" cy="371.0745898223049" r="4" class="lookup-dot"/>
    <circle cx="684.8636386002647" cy="307.86925711562463" r="4" class="lookup-dot"/>
    <circle cx="761.25" cy="56.31250791419052" r="4" class="lookup-dot"/>
    <circle cx="837.6363613997353" cy="336.9965382226953" r="4" class="lookup-dot"/>
    <circle cx="938.6136386002647" cy="333.02158064742775" r="4" class="lookup-dot"/>
    <circle cx="1015" cy="339.6718587305876" r="4" class="lookup-dot"/>
    <!-- Legend -->
    <g transform="translate(20, 20)">
      <rect x="0" y="0" width="190" height="80" fill="white" stroke="#ccc" stroke-width="1"/>

      <!-- Register Instance Legend -->
      <text x="10" y="20" class="legend" font-weight="bold">Register Instance</text>
      <line x1="10" y1="30" x2="40" y2="30" class="register-mean"/>
      <circle cx="25" cy="30" r="3" class="register-dot"/>
      <text x="45" y="34" class="legend">Average Timing</text>

      <!-- Lookup Instance Legend -->
      <text x="10" y="55" class="legend" font-weight="bold">Lookup Instance</text>
      <line x1="10" y1="65" x2="40" y2="65" class="lookup-mean"/>
      <circle cx="25" cy="65" r="3" class="lookup-dot"/>
      <text x="45" y="69" class="legend">Average Timing</text>
    </g>

  </g>

  <!-- Test Metadata Section -->
  <g transform="translate(50, 620)">
    <!-- Left Column: System Information -->
    <g transform="translate(20, 20)">
      <text x="0" y="0" class="metadata-section">System Information</text>

      <text x="0" y="25" class="metadata-label">Test Date:</text>
      <text x="150" y="25" class="metadata-value">2025-09-04</text>

      <text x="0" y="45" class="metadata-label">Package Version:</text>
      <text x="150" y="45" class="metadata-value">@fjell/registry v4.4.5</text>

      <text x="0" y="65" class="metadata-label">Node.js Version:</text>
      <text x="150" y="65" class="metadata-value">v22.18.0 (darwin arm64)</text>

      <text x="0" y="85" class="metadata-label">Platform:</text>
      <text x="150" y="85" class="metadata-value">darwin arm64</text>

      <text x="0" y="105" class="metadata-label">Compiler:</text>
      <text x="150" y="105" class="metadata-value">TypeScript + Vite</text>
    </g>

    <!-- Center Column: Test Configuration -->
    <g transform="translate(330, 20)">
      <text x="0" y="0" class="metadata-section">Test Configuration</text>

      <text x="0" y="25" class="metadata-label">Test Rounds:</text>
      <text x="120" y="25" class="metadata-value">100 per tree size</text>

      <text x="0" y="45" class="metadata-label">Iterations per Round:</text>
      <text x="120" y="45" class="metadata-value">200 operations</text>

      <text x="0" y="65" class="metadata-label">Total Measurements:</text>
      <text x="120" y="65" class="metadata-value">20,000 per data point</text>
    </g>

    <!-- Right Column: Test Notes -->
    <g transform="translate(600, 20)">
      <text x="0" y="0" class="metadata-section">Test Notes</text>
      <text x="0" y="25" class="metadata-label">• Performance measurements use Node.js performance.now() with microsecond precision</text>
      <text x="0" y="42" class="metadata-label">• Each test includes warm-up iterations to minimize JIT compilation effects</text>
      <text x="0" y="59" class="metadata-label">• Logging is mocked during timing tests to eliminate I/O overhead</text>
      <text x="0" y="76" class="metadata-label">• Tests verify both mean performance and consistency (low standard deviation)</text>
      <text x="0" y="93" class="metadata-label">• Statistical analysis ensures reliable performance measurements across all tree sizes</text>
    </g>
  </g>
</svg>