<?xml version="1.0" encoding="UTF-8"?>
<svg width="1200" height="800" xmlns="http://www.w3.org/2000/svg">
  <style>
    .axis { stroke: #333; stroke-width: 1; }
    .grid { stroke: #ddd; stroke-width: 0.5; }
    .label { font-family: Arial, sans-serif; font-size: 14px; fill: #333; }
    .title { font-family: Arial, sans-serif; font-size: 16px; font-weight: bold; fill: #333; }
    .subtitle { font-family: Arial, sans-serif; font-size: 12px; fill: #666; }
    .register-mean { stroke: #e74c3c; stroke-width: 3; fill: none; }
    .lookup-mean { stroke: #3498db; stroke-width: 3; fill: none; }
    .register-band { fill: rgba(231, 76, 60, 0.2); stroke: #e74c3c; stroke-width: 1; }
    .lookup-band { fill: rgba(52, 152, 219, 0.2); stroke: #3498db; stroke-width: 1; }
    .register-dot { fill: #e74c3c; }
    .lookup-dot { fill: #3498db; }
    .legend { font-family: Arial, sans-serif; font-size: 12px; fill: #333; }
    .axis-title { font-family: Arial, sans-serif; font-size: 16px; font-weight: bold; fill: #333; }
    .metadata-title { font-family: Arial, sans-serif; font-size: 14px; font-weight: bold; fill: #333; }
    .metadata-section { font-family: Arial, sans-serif; font-size: 14px; font-weight: bold; fill: #444; }
    .metadata-label { font-family: Arial, sans-serif; font-size: 10px; fill: #666; }
    .metadata-value { font-family: Arial, sans-serif; font-size: 10px; fill: #333; }
  </style>

  <!-- Background -->
  <rect width="1200" height="800" fill="white"/>

  <!-- Title -->
  <text x="600" y="25" text-anchor="middle" class="title">Timing of Common Registry Operations</text>
  <text x="600" y="45" text-anchor="middle" class="subtitle">Performance measurements across varying tree sizes</text>

  <!-- Plot area -->
  <g transform="translate(110,60)">

    <!-- Grid lines (logarithmic scale) -->
    <line x1="0" y1="457.6666713805134" x2="1015" y2="457.6666713805134" class="grid"/>
    <text x="-10" y="461.6666713805134" text-anchor="end" class="label">0.10µs</text>
    <line x1="0" y1="387.70544969582414" x2="1015" y2="387.70544969582414" class="grid"/>
    <text x="-10" y="391.70544969582414" text-anchor="end" class="label">0.20µs</text>
    <line x1="0" y1="295.22174519819055" x2="1015" y2="295.22174519819055" class="grid"/>
    <text x="-10" y="299.22174519819055" text-anchor="end" class="label">0.50µs</text>
    <line x1="0" y1="225.26052351350134" x2="1015" y2="225.26052351350134" class="grid"/>
    <text x="-10" y="229.26052351350134" text-anchor="end" class="label">1.0µs</text>
    <line x1="0" y1="155.29930182881213" x2="1015" y2="155.29930182881213" class="grid"/>
    <text x="-10" y="159.29930182881213" text-anchor="end" class="label">2.0µs</text>
    <line x1="0" y1="62.815597331178594" x2="1015" y2="62.815597331178594" class="grid"/>
    <text x="-10" y="66.8155973311786" text-anchor="end" class="label">5.0µs</text>
    <line x1="0" y1="0" x2="0" y2="460" class="grid"/>
    <text x="0" y="480" text-anchor="middle" class="label">10</text>
    <line x1="76.38636139973525" y1="0" x2="76.38636139973525" y2="460" class="grid"/>
    <text x="76.38636139973525" y="480" text-anchor="middle" class="label">20</text>
    <line x1="177.36363860026475" y1="0" x2="177.36363860026475" y2="460" class="grid"/>
    <text x="177.36363860026475" y="480" text-anchor="middle" class="label">50</text>
    <line x1="253.75" y1="0" x2="253.75" y2="460" class="grid"/>
    <text x="253.75" y="480" text-anchor="middle" class="label">100</text>
    <line x1="330.1363613997352" y1="0" x2="330.1363613997352" y2="460" class="grid"/>
    <text x="330.1363613997352" y="480" text-anchor="middle" class="label">200</text>
    <line x1="431.1136386002648" y1="0" x2="431.1136386002648" y2="460" class="grid"/>
    <text x="431.1136386002648" y="480" text-anchor="middle" class="label">500</text>
    <line x1="507.5" y1="0" x2="507.5" y2="460" class="grid"/>
    <text x="507.5" y="480" text-anchor="middle" class="label">1k</text>
    <line x1="583.8863613997353" y1="0" x2="583.8863613997353" y2="460" class="grid"/>
    <text x="583.8863613997353" y="480" text-anchor="middle" class="label">2k</text>
    <line x1="684.8636386002647" y1="0" x2="684.8636386002647" y2="460" class="grid"/>
    <text x="684.8636386002647" y="480" text-anchor="middle" class="label">5k</text>
    <line x1="761.25" y1="0" x2="761.25" y2="460" class="grid"/>
    <text x="761.25" y="480" text-anchor="middle" class="label">10k</text>
    <line x1="837.6363613997353" y1="0" x2="837.6363613997353" y2="460" class="grid"/>
    <text x="837.6363613997353" y="480" text-anchor="middle" class="label">20k</text>
    <line x1="938.6136386002647" y1="0" x2="938.6136386002647" y2="460" class="grid"/>
    <text x="938.6136386002647" y="480" text-anchor="middle" class="label">50k</text>
    <line x1="1015" y1="0" x2="1015" y2="460" class="grid"/>
    <text x="1015" y="480" text-anchor="middle" class="label">100k</text>
    <!-- Y-axis -->
    <line x1="0" y1="0" x2="0" y2="460" class="axis"/>

    <!-- X-axis -->
    <line x1="0" y1="460" x2="1015" y2="460" class="axis"/>

    <!-- Axis labels -->
    <text x="507.5" y="510" text-anchor="middle" class="axis-title">Tree Size (items) - Log Scale</text>
    <text transform="rotate(-90,-70,230)" x="-70" y="230" text-anchor="middle" class="axis-title">Execution Time (µs)</text>
    <path d="M 0 162.036023730032 L 76.38636139973525 199.92194454216684 L 177.36363860026475 180.79321863035807 L 253.75 187.60715615722802 L 330.1363613997352 173.91391428005716 L 431.1136386002648 184.06005752352138 L 507.5 141.383386116549 L 583.8863613997353 204.69578214186592 L 684.8636386002647 206.1311970357144 L 761.25 87.08624788584507 L 837.6363613997353 69.96122168468918 L 938.6136386002647 203.07288463701997 L 1015 215.57273165091996" class="register-mean"/>
    <path d="M 0 364.8039704829771 L 76.38636139973525 379.11430981740193 L 177.36363860026475 284.9534522846775 L 253.75 390.0387783153108 L 330.1363613997352 389.7986492271557 L 431.1136386002648 364.7621485082677 L 507.5 313.9174075959719 L 583.8863613997353 365.8960461378602 L 684.8636386002647 218.5623785529402 L 761.25 182.11371170586403 L 837.6363613997353 272.868648401109 L 938.6136386002647 299.90544804219076 L 1015 308.2620429415109" class="lookup-mean"/>
    <circle cx="0" cy="162.036023730032" r="4" class="register-dot"/>
    <circle cx="76.38636139973525" cy="199.92194454216684" r="4" class="register-dot"/>
    <circle cx="177.36363860026475" cy="180.79321863035807" r="4" class="register-dot"/>
    <circle cx="253.75" cy="187.60715615722802" r="4" class="register-dot"/>
    <circle cx="330.1363613997352" cy="173.91391428005716" r="4" class="register-dot"/>
    <circle cx="431.1136386002648" cy="184.06005752352138" r="4" class="register-dot"/>
    <circle cx="507.5" cy="141.383386116549" r="4" class="register-dot"/>
    <circle cx="583.8863613997353" cy="204.69578214186592" r="4" class="register-dot"/>
    <circle cx="684.8636386002647" cy="206.1311970357144" r="4" class="register-dot"/>
    <circle cx="761.25" cy="87.08624788584507" r="4" class="register-dot"/>
    <circle cx="837.6363613997353" cy="69.96122168468918" r="4" class="register-dot"/>
    <circle cx="938.6136386002647" cy="203.07288463701997" r="4" class="register-dot"/>
    <circle cx="1015" cy="215.57273165091996" r="4" class="register-dot"/>
    <circle cx="0" cy="364.8039704829771" r="4" class="lookup-dot"/>
    <circle cx="76.38636139973525" cy="379.11430981740193" r="4" class="lookup-dot"/>
    <circle cx="177.36363860026475" cy="284.9534522846775" r="4" class="lookup-dot"/>
    <circle cx="253.75" cy="390.0387783153108" r="4" class="lookup-dot"/>
    <circle cx="330.1363613997352" cy="389.7986492271557" r="4" class="lookup-dot"/>
    <circle cx="431.1136386002648" cy="364.7621485082677" r="4" class="lookup-dot"/>
    <circle cx="507.5" cy="313.9174075959719" r="4" class="lookup-dot"/>
    <circle cx="583.8863613997353" cy="365.8960461378602" r="4" class="lookup-dot"/>
    <circle cx="684.8636386002647" cy="218.5623785529402" r="4" class="lookup-dot"/>
    <circle cx="761.25" cy="182.11371170586403" r="4" class="lookup-dot"/>
    <circle cx="837.6363613997353" cy="272.868648401109" r="4" class="lookup-dot"/>
    <circle cx="938.6136386002647" cy="299.90544804219076" r="4" class="lookup-dot"/>
    <circle cx="1015" cy="308.2620429415109" r="4" class="lookup-dot"/>
    <!-- Legend -->
    <g transform="translate(20, 20)">
      <rect x="0" y="0" width="190" height="80" fill="white" stroke="#ccc" stroke-width="1"/>

      <!-- Register Instance Legend -->
      <text x="10" y="20" class="legend" font-weight="bold">Register Instance</text>
      <line x1="10" y1="30" x2="40" y2="30" class="register-mean"/>
      <circle cx="25" cy="30" r="3" class="register-dot"/>
      <text x="45" y="34" class="legend">Average Timing</text>

      <!-- Lookup Instance Legend -->
      <text x="10" y="55" class="legend" font-weight="bold">Lookup Instance</text>
      <line x1="10" y1="65" x2="40" y2="65" class="lookup-mean"/>
      <circle cx="25" cy="65" r="3" class="lookup-dot"/>
      <text x="45" y="69" class="legend">Average Timing</text>
    </g>

  </g>

  <!-- Test Metadata Section -->
  <g transform="translate(50, 620)">
    <!-- Left Column: System Information -->
    <g transform="translate(20, 20)">
      <text x="0" y="0" class="metadata-section">System Information</text>

      <text x="0" y="25" class="metadata-label">Test Date:</text>
      <text x="150" y="25" class="metadata-value">2025-07-28</text>

      <text x="0" y="45" class="metadata-label">Package Version:</text>
      <text x="150" y="45" class="metadata-value">@fjell/registry v4.4.5</text>

      <text x="0" y="65" class="metadata-label">Node.js Version:</text>
      <text x="150" y="65" class="metadata-value">v22.17.1 (darwin arm64)</text>

      <text x="0" y="85" class="metadata-label">Platform:</text>
      <text x="150" y="85" class="metadata-value">darwin arm64</text>

      <text x="0" y="105" class="metadata-label">Compiler:</text>
      <text x="150" y="105" class="metadata-value">TypeScript + Vite</text>
    </g>

    <!-- Center Column: Test Configuration -->
    <g transform="translate(330, 20)">
      <text x="0" y="0" class="metadata-section">Test Configuration</text>

      <text x="0" y="25" class="metadata-label">Test Rounds:</text>
      <text x="120" y="25" class="metadata-value">100 per tree size</text>

      <text x="0" y="45" class="metadata-label">Iterations per Round:</text>
      <text x="120" y="45" class="metadata-value">200 operations</text>

      <text x="0" y="65" class="metadata-label">Total Measurements:</text>
      <text x="120" y="65" class="metadata-value">20,000 per data point</text>
    </g>

    <!-- Right Column: Test Notes -->
    <g transform="translate(600, 20)">
      <text x="0" y="0" class="metadata-section">Test Notes</text>
      <text x="0" y="25" class="metadata-label">• Performance measurements use Node.js performance.now() with microsecond precision</text>
      <text x="0" y="42" class="metadata-label">• Each test includes warm-up iterations to minimize JIT compilation effects</text>
      <text x="0" y="59" class="metadata-label">• Logging is mocked during timing tests to eliminate I/O overhead</text>
      <text x="0" y="76" class="metadata-label">• Tests verify both mean performance and consistency (low standard deviation)</text>
      <text x="0" y="93" class="metadata-label">• Statistical analysis ensures reliable performance measurements across all tree sizes</text>
    </g>
  </g>
</svg>