<?xml version="1.0" encoding="UTF-8"?>
<svg width="1200" height="800" xmlns="http://www.w3.org/2000/svg">
  <style>
    .axis { stroke: #333; stroke-width: 1; }
    .grid { stroke: #ddd; stroke-width: 0.5; }
    .label { font-family: Arial, sans-serif; font-size: 14px; fill: #333; }
    .title { font-family: Arial, sans-serif; font-size: 16px; font-weight: bold; fill: #333; }
    .subtitle { font-family: Arial, sans-serif; font-size: 12px; fill: #666; }
    .register-mean { stroke: #e74c3c; stroke-width: 3; fill: none; }
    .lookup-mean { stroke: #3498db; stroke-width: 3; fill: none; }
    .register-band { fill: rgba(231, 76, 60, 0.2); stroke: #e74c3c; stroke-width: 1; }
    .lookup-band { fill: rgba(52, 152, 219, 0.2); stroke: #3498db; stroke-width: 1; }
    .register-dot { fill: #e74c3c; }
    .lookup-dot { fill: #3498db; }
    .legend { font-family: Arial, sans-serif; font-size: 12px; fill: #333; }
    .axis-title { font-family: Arial, sans-serif; font-size: 16px; font-weight: bold; fill: #333; }
    .metadata-title { font-family: Arial, sans-serif; font-size: 14px; font-weight: bold; fill: #333; }
    .metadata-section { font-family: Arial, sans-serif; font-size: 14px; font-weight: bold; fill: #444; }
    .metadata-label { font-family: Arial, sans-serif; font-size: 10px; fill: #666; }
    .metadata-value { font-family: Arial, sans-serif; font-size: 10px; fill: #333; }
  </style>

  <!-- Background -->
  <rect width="1200" height="800" fill="white"/>

  <!-- Title -->
  <text x="600" y="25" text-anchor="middle" class="title">Timing of Common Registry Operations</text>
  <text x="600" y="45" text-anchor="middle" class="subtitle">Performance measurements across varying tree sizes</text>

  <!-- Plot area -->
  <g transform="translate(110,60)">

    <!-- Grid lines (logarithmic scale) -->
    <line x1="0" y1="457.51924155586323" x2="1015" y2="457.51924155586323" class="grid"/>
    <text x="-10" y="461.51924155586323" text-anchor="end" class="label">0.10µs</text>
    <line x1="0" y1="390.1473181568898" x2="1015" y2="390.1473181568898" class="grid"/>
    <text x="-10" y="394.1473181568898" text-anchor="end" class="label">0.20µs</text>
    <line x1="0" y1="301.08647980918767" x2="1015" y2="301.08647980918767" class="grid"/>
    <text x="-10" y="305.08647980918767" text-anchor="end" class="label">0.50µs</text>
    <line x1="0" y1="233.71455641021424" x2="1015" y2="233.71455641021424" class="grid"/>
    <text x="-10" y="237.71455641021424" text-anchor="end" class="label">1.0µs</text>
    <line x1="0" y1="166.34263301124082" x2="1015" y2="166.34263301124082" class="grid"/>
    <text x="-10" y="170.34263301124082" text-anchor="end" class="label">2.0µs</text>
    <line x1="0" y1="77.28179466353868" x2="1015" y2="77.28179466353868" class="grid"/>
    <text x="-10" y="81.28179466353868" text-anchor="end" class="label">5.0µs</text>
    <line x1="0" y1="0" x2="0" y2="460" class="grid"/>
    <text x="0" y="480" text-anchor="middle" class="label">10</text>
    <line x1="76.38636139973525" y1="0" x2="76.38636139973525" y2="460" class="grid"/>
    <text x="76.38636139973525" y="480" text-anchor="middle" class="label">20</text>
    <line x1="177.36363860026475" y1="0" x2="177.36363860026475" y2="460" class="grid"/>
    <text x="177.36363860026475" y="480" text-anchor="middle" class="label">50</text>
    <line x1="253.75" y1="0" x2="253.75" y2="460" class="grid"/>
    <text x="253.75" y="480" text-anchor="middle" class="label">100</text>
    <line x1="330.1363613997352" y1="0" x2="330.1363613997352" y2="460" class="grid"/>
    <text x="330.1363613997352" y="480" text-anchor="middle" class="label">200</text>
    <line x1="431.1136386002648" y1="0" x2="431.1136386002648" y2="460" class="grid"/>
    <text x="431.1136386002648" y="480" text-anchor="middle" class="label">500</text>
    <line x1="507.5" y1="0" x2="507.5" y2="460" class="grid"/>
    <text x="507.5" y="480" text-anchor="middle" class="label">1k</text>
    <line x1="583.8863613997353" y1="0" x2="583.8863613997353" y2="460" class="grid"/>
    <text x="583.8863613997353" y="480" text-anchor="middle" class="label">2k</text>
    <line x1="684.8636386002647" y1="0" x2="684.8636386002647" y2="460" class="grid"/>
    <text x="684.8636386002647" y="480" text-anchor="middle" class="label">5k</text>
    <line x1="761.25" y1="0" x2="761.25" y2="460" class="grid"/>
    <text x="761.25" y="480" text-anchor="middle" class="label">10k</text>
    <line x1="837.6363613997353" y1="0" x2="837.6363613997353" y2="460" class="grid"/>
    <text x="837.6363613997353" y="480" text-anchor="middle" class="label">20k</text>
    <line x1="938.6136386002647" y1="0" x2="938.6136386002647" y2="460" class="grid"/>
    <text x="938.6136386002647" y="480" text-anchor="middle" class="label">50k</text>
    <line x1="1015" y1="0" x2="1015" y2="460" class="grid"/>
    <text x="1015" y="480" text-anchor="middle" class="label">100k</text>
    <!-- Y-axis -->
    <line x1="0" y1="0" x2="0" y2="460" class="axis"/>

    <!-- X-axis -->
    <line x1="0" y1="460" x2="1015" y2="460" class="axis"/>

    <!-- Axis labels -->
    <text x="507.5" y="510" text-anchor="middle" class="axis-title">Tree Size (items) - Log Scale</text>
    <text transform="rotate(-90,-70,230)" x="-70" y="230" text-anchor="middle" class="axis-title">Execution Time (µs)</text>
    <path d="M 0 186.92412303828223 L 76.38636139973525 162.21949181310293 L 177.36363860026475 161.31525900221862 L 253.75 180.4233302394569 L 330.1363613997352 191.88315428849035 L 431.1136386002648 216.63916995901667 L 507.5 209.44906983728913 L 583.8863613997353 218.78910898146023 L 684.8636386002647 145.99791460216608 L 761.25 67.37192339897337 L 837.6363613997353 160.14503033889724 L 938.6136386002647 173.96336338186723 L 1015 214.18785102289192" class="register-mean"/>
    <path d="M 0 296.94377693203467 L 76.38636139973525 329.4329783279013 L 177.36363860026475 141.90555700913126 L 253.75 391.64025271380274 L 330.1363613997352 392.62807660102663 L 431.1136386002648 388.7095247264335 L 507.5 388.7202994423127 L 583.8863613997353 348.25696477287096 L 684.8636386002647 343.90521480074244 L 761.25 313.5985925017944 L 837.6363613997353 200.4980141021037 L 938.6136386002647 302.19538583636404 L 1015 315.0720641230381" class="lookup-mean"/>
    <circle cx="0" cy="186.92412303828223" r="4" class="register-dot"/>
    <circle cx="76.38636139973525" cy="162.21949181310293" r="4" class="register-dot"/>
    <circle cx="177.36363860026475" cy="161.31525900221862" r="4" class="register-dot"/>
    <circle cx="253.75" cy="180.4233302394569" r="4" class="register-dot"/>
    <circle cx="330.1363613997352" cy="191.88315428849035" r="4" class="register-dot"/>
    <circle cx="431.1136386002648" cy="216.63916995901667" r="4" class="register-dot"/>
    <circle cx="507.5" cy="209.44906983728913" r="4" class="register-dot"/>
    <circle cx="583.8863613997353" cy="218.78910898146023" r="4" class="register-dot"/>
    <circle cx="684.8636386002647" cy="145.99791460216608" r="4" class="register-dot"/>
    <circle cx="761.25" cy="67.37192339897337" r="4" class="register-dot"/>
    <circle cx="837.6363613997353" cy="160.14503033889724" r="4" class="register-dot"/>
    <circle cx="938.6136386002647" cy="173.96336338186723" r="4" class="register-dot"/>
    <circle cx="1015" cy="214.18785102289192" r="4" class="register-dot"/>
    <circle cx="0" cy="296.94377693203467" r="4" class="lookup-dot"/>
    <circle cx="76.38636139973525" cy="329.4329783279013" r="4" class="lookup-dot"/>
    <circle cx="177.36363860026475" cy="141.90555700913126" r="4" class="lookup-dot"/>
    <circle cx="253.75" cy="391.64025271380274" r="4" class="lookup-dot"/>
    <circle cx="330.1363613997352" cy="392.62807660102663" r="4" class="lookup-dot"/>
    <circle cx="431.1136386002648" cy="388.7095247264335" r="4" class="lookup-dot"/>
    <circle cx="507.5" cy="388.7202994423127" r="4" class="lookup-dot"/>
    <circle cx="583.8863613997353" cy="348.25696477287096" r="4" class="lookup-dot"/>
    <circle cx="684.8636386002647" cy="343.90521480074244" r="4" class="lookup-dot"/>
    <circle cx="761.25" cy="313.5985925017944" r="4" class="lookup-dot"/>
    <circle cx="837.6363613997353" cy="200.4980141021037" r="4" class="lookup-dot"/>
    <circle cx="938.6136386002647" cy="302.19538583636404" r="4" class="lookup-dot"/>
    <circle cx="1015" cy="315.0720641230381" r="4" class="lookup-dot"/>
    <!-- Legend -->
    <g transform="translate(20, 20)">
      <rect x="0" y="0" width="190" height="80" fill="white" stroke="#ccc" stroke-width="1"/>

      <!-- Register Instance Legend -->
      <text x="10" y="20" class="legend" font-weight="bold">Register Instance</text>
      <line x1="10" y1="30" x2="40" y2="30" class="register-mean"/>
      <circle cx="25" cy="30" r="3" class="register-dot"/>
      <text x="45" y="34" class="legend">Average Timing</text>

      <!-- Lookup Instance Legend -->
      <text x="10" y="55" class="legend" font-weight="bold">Lookup Instance</text>
      <line x1="10" y1="65" x2="40" y2="65" class="lookup-mean"/>
      <circle cx="25" cy="65" r="3" class="lookup-dot"/>
      <text x="45" y="69" class="legend">Average Timing</text>
    </g>

  </g>

  <!-- Test Metadata Section -->
  <g transform="translate(50, 620)">
    <!-- Left Column: System Information -->
    <g transform="translate(20, 20)">
      <text x="0" y="0" class="metadata-section">System Information</text>

      <text x="0" y="25" class="metadata-label">Test Date:</text>
      <text x="150" y="25" class="metadata-value">2025-08-30</text>

      <text x="0" y="45" class="metadata-label">Package Version:</text>
      <text x="150" y="45" class="metadata-value">@fjell/registry v4.4.5</text>

      <text x="0" y="65" class="metadata-label">Node.js Version:</text>
      <text x="150" y="65" class="metadata-value">v22.18.0 (darwin arm64)</text>

      <text x="0" y="85" class="metadata-label">Platform:</text>
      <text x="150" y="85" class="metadata-value">darwin arm64</text>

      <text x="0" y="105" class="metadata-label">Compiler:</text>
      <text x="150" y="105" class="metadata-value">TypeScript + Vite</text>
    </g>

    <!-- Center Column: Test Configuration -->
    <g transform="translate(330, 20)">
      <text x="0" y="0" class="metadata-section">Test Configuration</text>

      <text x="0" y="25" class="metadata-label">Test Rounds:</text>
      <text x="120" y="25" class="metadata-value">100 per tree size</text>

      <text x="0" y="45" class="metadata-label">Iterations per Round:</text>
      <text x="120" y="45" class="metadata-value">200 operations</text>

      <text x="0" y="65" class="metadata-label">Total Measurements:</text>
      <text x="120" y="65" class="metadata-value">20,000 per data point</text>
    </g>

    <!-- Right Column: Test Notes -->
    <g transform="translate(600, 20)">
      <text x="0" y="0" class="metadata-section">Test Notes</text>
      <text x="0" y="25" class="metadata-label">• Performance measurements use Node.js performance.now() with microsecond precision</text>
      <text x="0" y="42" class="metadata-label">• Each test includes warm-up iterations to minimize JIT compilation effects</text>
      <text x="0" y="59" class="metadata-label">• Logging is mocked during timing tests to eliminate I/O overhead</text>
      <text x="0" y="76" class="metadata-label">• Tests verify both mean performance and consistency (low standard deviation)</text>
      <text x="0" y="93" class="metadata-label">• Statistical analysis ensures reliable performance measurements across all tree sizes</text>
    </g>
  </g>
</svg>