<?xml version="1.0" encoding="UTF-8"?>
<svg width="1200" height="800" xmlns="http://www.w3.org/2000/svg">
  <style>
    .axis { stroke: #333; stroke-width: 1; }
    .grid { stroke: #ddd; stroke-width: 0.5; }
    .label { font-family: Arial, sans-serif; font-size: 14px; fill: #333; }
    .title { font-family: Arial, sans-serif; font-size: 16px; font-weight: bold; fill: #333; }
    .subtitle { font-family: Arial, sans-serif; font-size: 12px; fill: #666; }
    .register-mean { stroke: #e74c3c; stroke-width: 3; fill: none; }
    .lookup-mean { stroke: #3498db; stroke-width: 3; fill: none; }
    .register-band { fill: rgba(231, 76, 60, 0.2); stroke: #e74c3c; stroke-width: 1; }
    .lookup-band { fill: rgba(52, 152, 219, 0.2); stroke: #3498db; stroke-width: 1; }
    .register-dot { fill: #e74c3c; }
    .lookup-dot { fill: #3498db; }
    .legend { font-family: Arial, sans-serif; font-size: 12px; fill: #333; }
    .axis-title { font-family: Arial, sans-serif; font-size: 16px; font-weight: bold; fill: #333; }
    .metadata-title { font-family: Arial, sans-serif; font-size: 14px; font-weight: bold; fill: #333; }
    .metadata-section { font-family: Arial, sans-serif; font-size: 14px; font-weight: bold; fill: #444; }
    .metadata-label { font-family: Arial, sans-serif; font-size: 10px; fill: #666; }
    .metadata-value { font-family: Arial, sans-serif; font-size: 10px; fill: #333; }
  </style>

  <!-- Background -->
  <rect width="1200" height="800" fill="white"/>

  <!-- Title -->
  <text x="600" y="25" text-anchor="middle" class="title">Timing of Common Registry Operations</text>
  <text x="600" y="45" text-anchor="middle" class="subtitle">Performance measurements across varying tree sizes</text>

  <!-- Plot area -->
  <g transform="translate(110,60)">

    <!-- Grid lines (logarithmic scale) -->
    <line x1="0" y1="445.15989897297266" x2="1015" y2="445.15989897297266" class="grid"/>
    <text x="-10" y="449.15989897297266" text-anchor="end" class="label">0.10µs</text>
    <line x1="0" y1="366.2847675017823" x2="1015" y2="366.2847675017823" class="grid"/>
    <text x="-10" y="370.2847675017823" text-anchor="end" class="label">0.20µs</text>
    <line x1="0" y1="262.0175152220815" x2="1015" y2="262.0175152220815" class="grid"/>
    <text x="-10" y="266.0175152220815" text-anchor="end" class="label">0.50µs</text>
    <line x1="0" y1="183.1423837508912" x2="1015" y2="183.1423837508912" class="grid"/>
    <text x="-10" y="187.1423837508912" text-anchor="end" class="label">1.0µs</text>
    <line x1="0" y1="104.26725227970087" x2="1015" y2="104.26725227970087" class="grid"/>
    <text x="-10" y="108.26725227970087" text-anchor="end" class="label">2.0µs</text>
    <line x1="0" y1="0" x2="1015" y2="0" class="grid"/>
    <text x="-10" y="4" text-anchor="end" class="label">5.0µs</text>
    <line x1="0" y1="0" x2="0" y2="460" class="grid"/>
    <text x="0" y="480" text-anchor="middle" class="label">10</text>
    <line x1="76.38636139973525" y1="0" x2="76.38636139973525" y2="460" class="grid"/>
    <text x="76.38636139973525" y="480" text-anchor="middle" class="label">20</text>
    <line x1="177.36363860026475" y1="0" x2="177.36363860026475" y2="460" class="grid"/>
    <text x="177.36363860026475" y="480" text-anchor="middle" class="label">50</text>
    <line x1="253.75" y1="0" x2="253.75" y2="460" class="grid"/>
    <text x="253.75" y="480" text-anchor="middle" class="label">100</text>
    <line x1="330.1363613997352" y1="0" x2="330.1363613997352" y2="460" class="grid"/>
    <text x="330.1363613997352" y="480" text-anchor="middle" class="label">200</text>
    <line x1="431.1136386002648" y1="0" x2="431.1136386002648" y2="460" class="grid"/>
    <text x="431.1136386002648" y="480" text-anchor="middle" class="label">500</text>
    <line x1="507.5" y1="0" x2="507.5" y2="460" class="grid"/>
    <text x="507.5" y="480" text-anchor="middle" class="label">1k</text>
    <line x1="583.8863613997353" y1="0" x2="583.8863613997353" y2="460" class="grid"/>
    <text x="583.8863613997353" y="480" text-anchor="middle" class="label">2k</text>
    <line x1="684.8636386002647" y1="0" x2="684.8636386002647" y2="460" class="grid"/>
    <text x="684.8636386002647" y="480" text-anchor="middle" class="label">5k</text>
    <line x1="761.25" y1="0" x2="761.25" y2="460" class="grid"/>
    <text x="761.25" y="480" text-anchor="middle" class="label">10k</text>
    <line x1="837.6363613997353" y1="0" x2="837.6363613997353" y2="460" class="grid"/>
    <text x="837.6363613997353" y="480" text-anchor="middle" class="label">20k</text>
    <line x1="938.6136386002647" y1="0" x2="938.6136386002647" y2="460" class="grid"/>
    <text x="938.6136386002647" y="480" text-anchor="middle" class="label">50k</text>
    <line x1="1015" y1="0" x2="1015" y2="460" class="grid"/>
    <text x="1015" y="480" text-anchor="middle" class="label">100k</text>
    <!-- Y-axis -->
    <line x1="0" y1="0" x2="0" y2="460" class="axis"/>

    <!-- X-axis -->
    <line x1="0" y1="460" x2="1015" y2="460" class="axis"/>

    <!-- Axis labels -->
    <text x="507.5" y="510" text-anchor="middle" class="axis-title">Tree Size (items) - Log Scale</text>
    <text transform="rotate(-90,-70,230)" x="-70" y="230" text-anchor="middle" class="axis-title">Execution Time (µs)</text>
    <path d="M 0 130.01481882330438 L 76.38636139973525 110.2230035040086 L 177.36363860026475 167.45727769534926 L 253.75 172.93122840754188 L 330.1363613997352 181.42384192040998 L 431.1136386002648 181.86542421113478 L 507.5 170.4884666512006 L 583.8863613997353 176.22317948392447 L 684.8636386002647 185.73103285527753 L 761.25 171.93816955119325 L 837.6363613997353 157.2271103213822 L 938.6136386002647 179.96898773153413 L 1015 174.1195672355479" class="register-mean"/>
    <path d="M 0 330.8536811466921 L 76.38636139973525 359.72479318184196 L 177.36363860026475 380.54747537374885 L 253.75 375.9465954778729 L 330.1363613997352 381.12486852880966 L 431.1136386002648 371.13942026023363 L 507.5 353.66063578424126 L 583.8863613997353 321.2312063427394 L 684.8636386002647 304.2946617384628 L 761.25 309.29257890660244 L 837.6363613997353 283.1152284875384 L 938.6136386002647 303.70485597925244 L 1015 298.13400606652533" class="lookup-mean"/>
    <circle cx="0" cy="130.01481882330438" r="4" class="register-dot"/>
    <circle cx="76.38636139973525" cy="110.2230035040086" r="4" class="register-dot"/>
    <circle cx="177.36363860026475" cy="167.45727769534926" r="4" class="register-dot"/>
    <circle cx="253.75" cy="172.93122840754188" r="4" class="register-dot"/>
    <circle cx="330.1363613997352" cy="181.42384192040998" r="4" class="register-dot"/>
    <circle cx="431.1136386002648" cy="181.86542421113478" r="4" class="register-dot"/>
    <circle cx="507.5" cy="170.4884666512006" r="4" class="register-dot"/>
    <circle cx="583.8863613997353" cy="176.22317948392447" r="4" class="register-dot"/>
    <circle cx="684.8636386002647" cy="185.73103285527753" r="4" class="register-dot"/>
    <circle cx="761.25" cy="171.93816955119325" r="4" class="register-dot"/>
    <circle cx="837.6363613997353" cy="157.2271103213822" r="4" class="register-dot"/>
    <circle cx="938.6136386002647" cy="179.96898773153413" r="4" class="register-dot"/>
    <circle cx="1015" cy="174.1195672355479" r="4" class="register-dot"/>
    <circle cx="0" cy="330.8536811466921" r="4" class="lookup-dot"/>
    <circle cx="76.38636139973525" cy="359.72479318184196" r="4" class="lookup-dot"/>
    <circle cx="177.36363860026475" cy="380.54747537374885" r="4" class="lookup-dot"/>
    <circle cx="253.75" cy="375.9465954778729" r="4" class="lookup-dot"/>
    <circle cx="330.1363613997352" cy="381.12486852880966" r="4" class="lookup-dot"/>
    <circle cx="431.1136386002648" cy="371.13942026023363" r="4" class="lookup-dot"/>
    <circle cx="507.5" cy="353.66063578424126" r="4" class="lookup-dot"/>
    <circle cx="583.8863613997353" cy="321.2312063427394" r="4" class="lookup-dot"/>
    <circle cx="684.8636386002647" cy="304.2946617384628" r="4" class="lookup-dot"/>
    <circle cx="761.25" cy="309.29257890660244" r="4" class="lookup-dot"/>
    <circle cx="837.6363613997353" cy="283.1152284875384" r="4" class="lookup-dot"/>
    <circle cx="938.6136386002647" cy="303.70485597925244" r="4" class="lookup-dot"/>
    <circle cx="1015" cy="298.13400606652533" r="4" class="lookup-dot"/>
    <!-- Legend -->
    <g transform="translate(20, 20)">
      <rect x="0" y="0" width="190" height="80" fill="white" stroke="#ccc" stroke-width="1"/>

      <!-- Register Instance Legend -->
      <text x="10" y="20" class="legend" font-weight="bold">Register Instance</text>
      <line x1="10" y1="30" x2="40" y2="30" class="register-mean"/>
      <circle cx="25" cy="30" r="3" class="register-dot"/>
      <text x="45" y="34" class="legend">Average Timing</text>

      <!-- Lookup Instance Legend -->
      <text x="10" y="55" class="legend" font-weight="bold">Lookup Instance</text>
      <line x1="10" y1="65" x2="40" y2="65" class="lookup-mean"/>
      <circle cx="25" cy="65" r="3" class="lookup-dot"/>
      <text x="45" y="69" class="legend">Average Timing</text>
    </g>

  </g>

  <!-- Test Metadata Section -->
  <g transform="translate(50, 620)">
    <!-- Left Column: System Information -->
    <g transform="translate(20, 20)">
      <text x="0" y="0" class="metadata-section">System Information</text>

      <text x="0" y="25" class="metadata-label">Test Date:</text>
      <text x="150" y="25" class="metadata-value">2025-10-11</text>

      <text x="0" y="45" class="metadata-label">Package Version:</text>
      <text x="150" y="45" class="metadata-value">@fjell/registry v4.4.5</text>

      <text x="0" y="65" class="metadata-label">Node.js Version:</text>
      <text x="150" y="65" class="metadata-value">v24.8.0 (darwin arm64)</text>

      <text x="0" y="85" class="metadata-label">Platform:</text>
      <text x="150" y="85" class="metadata-value">darwin arm64</text>

      <text x="0" y="105" class="metadata-label">Compiler:</text>
      <text x="150" y="105" class="metadata-value">TypeScript + Vite</text>
    </g>

    <!-- Center Column: Test Configuration -->
    <g transform="translate(330, 20)">
      <text x="0" y="0" class="metadata-section">Test Configuration</text>

      <text x="0" y="25" class="metadata-label">Test Rounds:</text>
      <text x="120" y="25" class="metadata-value">100 per tree size</text>

      <text x="0" y="45" class="metadata-label">Iterations per Round:</text>
      <text x="120" y="45" class="metadata-value">200 operations</text>

      <text x="0" y="65" class="metadata-label">Total Measurements:</text>
      <text x="120" y="65" class="metadata-value">20,000 per data point</text>
    </g>

    <!-- Right Column: Test Notes -->
    <g transform="translate(600, 20)">
      <text x="0" y="0" class="metadata-section">Test Notes</text>
      <text x="0" y="25" class="metadata-label">• Performance measurements use Node.js performance.now() with microsecond precision</text>
      <text x="0" y="42" class="metadata-label">• Each test includes warm-up iterations to minimize JIT compilation effects</text>
      <text x="0" y="59" class="metadata-label">• Logging is mocked during timing tests to eliminate I/O overhead</text>
      <text x="0" y="76" class="metadata-label">• Tests verify both mean performance and consistency (low standard deviation)</text>
      <text x="0" y="93" class="metadata-label">• Statistical analysis ensures reliable performance measurements across all tree sizes</text>
    </g>
  </g>
</svg>