<?xml version="1.0" encoding="UTF-8"?>
<svg width="1200" height="800" xmlns="http://www.w3.org/2000/svg">
  <style>
    .axis { stroke: #333; stroke-width: 1; }
    .grid { stroke: #ddd; stroke-width: 0.5; }
    .label { font-family: Arial, sans-serif; font-size: 14px; fill: #333; }
    .title { font-family: Arial, sans-serif; font-size: 16px; font-weight: bold; fill: #333; }
    .subtitle { font-family: Arial, sans-serif; font-size: 12px; fill: #666; }
    .register-mean { stroke: #e74c3c; stroke-width: 3; fill: none; }
    .lookup-mean { stroke: #3498db; stroke-width: 3; fill: none; }
    .register-band { fill: rgba(231, 76, 60, 0.2); stroke: #e74c3c; stroke-width: 1; }
    .lookup-band { fill: rgba(52, 152, 219, 0.2); stroke: #3498db; stroke-width: 1; }
    .register-dot { fill: #e74c3c; }
    .lookup-dot { fill: #3498db; }
    .legend { font-family: Arial, sans-serif; font-size: 12px; fill: #333; }
    .axis-title { font-family: Arial, sans-serif; font-size: 16px; font-weight: bold; fill: #333; }
    .metadata-title { font-family: Arial, sans-serif; font-size: 14px; font-weight: bold; fill: #333; }
    .metadata-section { font-family: Arial, sans-serif; font-size: 14px; font-weight: bold; fill: #444; }
    .metadata-label { font-family: Arial, sans-serif; font-size: 10px; fill: #666; }
    .metadata-value { font-family: Arial, sans-serif; font-size: 10px; fill: #333; }
  </style>

  <!-- Background -->
  <rect width="1200" height="800" fill="white"/>

  <!-- Title -->
  <text x="600" y="25" text-anchor="middle" class="title">Timing of Common Registry Operations</text>
  <text x="600" y="45" text-anchor="middle" class="subtitle">Performance measurements across varying tree sizes</text>

  <!-- Plot area -->
  <g transform="translate(110,60)">

    <!-- Grid lines (logarithmic scale) -->
    <line x1="0" y1="433.59209250557956" x2="1015" y2="433.59209250557956" class="grid"/>
    <text x="-10" y="437.59209250557956" text-anchor="end" class="label">0.50µs</text>
    <line x1="0" y1="386.5086640181149" x2="1015" y2="386.5086640181149" class="grid"/>
    <text x="-10" y="390.5086640181149" text-anchor="end" class="label">1.0µs</text>
    <line x1="0" y1="339.42523553065035" x2="1015" y2="339.42523553065035" class="grid"/>
    <text x="-10" y="343.42523553065035" text-anchor="end" class="label">2.0µs</text>
    <line x1="0" y1="277.1843286094509" x2="1015" y2="277.1843286094509" class="grid"/>
    <text x="-10" y="281.1843286094509" text-anchor="end" class="label">5.0µs</text>
    <line x1="0" y1="0" x2="0" y2="460" class="grid"/>
    <text x="0" y="480" text-anchor="middle" class="label">10</text>
    <line x1="76.38636139973525" y1="0" x2="76.38636139973525" y2="460" class="grid"/>
    <text x="76.38636139973525" y="480" text-anchor="middle" class="label">20</text>
    <line x1="177.36363860026475" y1="0" x2="177.36363860026475" y2="460" class="grid"/>
    <text x="177.36363860026475" y="480" text-anchor="middle" class="label">50</text>
    <line x1="253.75" y1="0" x2="253.75" y2="460" class="grid"/>
    <text x="253.75" y="480" text-anchor="middle" class="label">100</text>
    <line x1="330.1363613997352" y1="0" x2="330.1363613997352" y2="460" class="grid"/>
    <text x="330.1363613997352" y="480" text-anchor="middle" class="label">200</text>
    <line x1="431.1136386002648" y1="0" x2="431.1136386002648" y2="460" class="grid"/>
    <text x="431.1136386002648" y="480" text-anchor="middle" class="label">500</text>
    <line x1="507.5" y1="0" x2="507.5" y2="460" class="grid"/>
    <text x="507.5" y="480" text-anchor="middle" class="label">1k</text>
    <line x1="583.8863613997353" y1="0" x2="583.8863613997353" y2="460" class="grid"/>
    <text x="583.8863613997353" y="480" text-anchor="middle" class="label">2k</text>
    <line x1="684.8636386002647" y1="0" x2="684.8636386002647" y2="460" class="grid"/>
    <text x="684.8636386002647" y="480" text-anchor="middle" class="label">5k</text>
    <line x1="761.25" y1="0" x2="761.25" y2="460" class="grid"/>
    <text x="761.25" y="480" text-anchor="middle" class="label">10k</text>
    <line x1="837.6363613997353" y1="0" x2="837.6363613997353" y2="460" class="grid"/>
    <text x="837.6363613997353" y="480" text-anchor="middle" class="label">20k</text>
    <line x1="938.6136386002647" y1="0" x2="938.6136386002647" y2="460" class="grid"/>
    <text x="938.6136386002647" y="480" text-anchor="middle" class="label">50k</text>
    <line x1="1015" y1="0" x2="1015" y2="460" class="grid"/>
    <text x="1015" y="480" text-anchor="middle" class="label">100k</text>
    <!-- Y-axis -->
    <line x1="0" y1="0" x2="0" y2="460" class="axis"/>

    <!-- X-axis -->
    <line x1="0" y1="460" x2="1015" y2="460" class="axis"/>

    <!-- Axis labels -->
    <text x="507.5" y="510" text-anchor="middle" class="axis-title">Tree Size (items) - Log Scale</text>
    <text transform="rotate(-90,-70,230)" x="-70" y="230" text-anchor="middle" class="axis-title">Execution Time (µs)</text>
    <path d="M 0 149.96878601742708 L 76.38636139973525 189.00483289521776 L 177.36363860026475 265.7428730639914 L 253.75 273.35532483869906 L 330.1363613997352 214.94788328214904 L 431.1136386002648 231.9660365789415 L 507.5 179.1983270950907 L 583.8863613997353 271.6754552858014 L 684.8636386002647 279.2869537678585 L 761.25 272.90959712899615 L 837.6363613997353 265.86525088032477 L 938.6136386002647 260.31997776047024 L 1015 47.083428487464516" class="register-mean"/>
    <path d="M 0 409.73284278794586 L 76.38636139973525 204.64057709645647 L 177.36363860026475 412.91657151253537 L 253.75 409.1075371911792 L 330.1363613997352 409.23897274259764 L 431.1136386002648 399.93630636054246 L 507.5 393.7815186328604 L 583.8863613997353 401.22992622571456 L 684.8636386002647 373.83207871589184 L 761.25 365.30492538435686 L 837.6363613997353 365.28573862914266 L 938.6136386002647 344.6856919226908 L 1015 350.0109909054253" class="lookup-mean"/>
    <circle cx="0" cy="149.96878601742708" r="4" class="register-dot"/>
    <circle cx="76.38636139973525" cy="189.00483289521776" r="4" class="register-dot"/>
    <circle cx="177.36363860026475" cy="265.7428730639914" r="4" class="register-dot"/>
    <circle cx="253.75" cy="273.35532483869906" r="4" class="register-dot"/>
    <circle cx="330.1363613997352" cy="214.94788328214904" r="4" class="register-dot"/>
    <circle cx="431.1136386002648" cy="231.9660365789415" r="4" class="register-dot"/>
    <circle cx="507.5" cy="179.1983270950907" r="4" class="register-dot"/>
    <circle cx="583.8863613997353" cy="271.6754552858014" r="4" class="register-dot"/>
    <circle cx="684.8636386002647" cy="279.2869537678585" r="4" class="register-dot"/>
    <circle cx="761.25" cy="272.90959712899615" r="4" class="register-dot"/>
    <circle cx="837.6363613997353" cy="265.86525088032477" r="4" class="register-dot"/>
    <circle cx="938.6136386002647" cy="260.31997776047024" r="4" class="register-dot"/>
    <circle cx="1015" cy="47.083428487464516" r="4" class="register-dot"/>
    <circle cx="0" cy="409.73284278794586" r="4" class="lookup-dot"/>
    <circle cx="76.38636139973525" cy="204.64057709645647" r="4" class="lookup-dot"/>
    <circle cx="177.36363860026475" cy="412.91657151253537" r="4" class="lookup-dot"/>
    <circle cx="253.75" cy="409.1075371911792" r="4" class="lookup-dot"/>
    <circle cx="330.1363613997352" cy="409.23897274259764" r="4" class="lookup-dot"/>
    <circle cx="431.1136386002648" cy="399.93630636054246" r="4" class="lookup-dot"/>
    <circle cx="507.5" cy="393.7815186328604" r="4" class="lookup-dot"/>
    <circle cx="583.8863613997353" cy="401.22992622571456" r="4" class="lookup-dot"/>
    <circle cx="684.8636386002647" cy="373.83207871589184" r="4" class="lookup-dot"/>
    <circle cx="761.25" cy="365.30492538435686" r="4" class="lookup-dot"/>
    <circle cx="837.6363613997353" cy="365.28573862914266" r="4" class="lookup-dot"/>
    <circle cx="938.6136386002647" cy="344.6856919226908" r="4" class="lookup-dot"/>
    <circle cx="1015" cy="350.0109909054253" r="4" class="lookup-dot"/>
    <!-- Legend -->
    <g transform="translate(20, 20)">
      <rect x="0" y="0" width="190" height="80" fill="white" stroke="#ccc" stroke-width="1"/>

      <!-- Register Instance Legend -->
      <text x="10" y="20" class="legend" font-weight="bold">Register Instance</text>
      <line x1="10" y1="30" x2="40" y2="30" class="register-mean"/>
      <circle cx="25" cy="30" r="3" class="register-dot"/>
      <text x="45" y="34" class="legend">Average Timing</text>

      <!-- Lookup Instance Legend -->
      <text x="10" y="55" class="legend" font-weight="bold">Lookup Instance</text>
      <line x1="10" y1="65" x2="40" y2="65" class="lookup-mean"/>
      <circle cx="25" cy="65" r="3" class="lookup-dot"/>
      <text x="45" y="69" class="legend">Average Timing</text>
    </g>

  </g>

  <!-- Test Metadata Section -->
  <g transform="translate(50, 620)">
    <!-- Left Column: System Information -->
    <g transform="translate(20, 20)">
      <text x="0" y="0" class="metadata-section">System Information</text>

      <text x="0" y="25" class="metadata-label">Test Date:</text>
      <text x="150" y="25" class="metadata-value">2025-10-22</text>

      <text x="0" y="45" class="metadata-label">Package Version:</text>
      <text x="150" y="45" class="metadata-value">@fjell/registry v4.4.5</text>

      <text x="0" y="65" class="metadata-label">Node.js Version:</text>
      <text x="150" y="65" class="metadata-value">v22.20.0 (linux x64)</text>

      <text x="0" y="85" class="metadata-label">Platform:</text>
      <text x="150" y="85" class="metadata-value">linux x64</text>

      <text x="0" y="105" class="metadata-label">Compiler:</text>
      <text x="150" y="105" class="metadata-value">TypeScript + Vite</text>
    </g>

    <!-- Center Column: Test Configuration -->
    <g transform="translate(330, 20)">
      <text x="0" y="0" class="metadata-section">Test Configuration</text>

      <text x="0" y="25" class="metadata-label">Test Rounds:</text>
      <text x="120" y="25" class="metadata-value">100 per tree size</text>

      <text x="0" y="45" class="metadata-label">Iterations per Round:</text>
      <text x="120" y="45" class="metadata-value">200 operations</text>

      <text x="0" y="65" class="metadata-label">Total Measurements:</text>
      <text x="120" y="65" class="metadata-value">20,000 per data point</text>
    </g>

    <!-- Right Column: Test Notes -->
    <g transform="translate(600, 20)">
      <text x="0" y="0" class="metadata-section">Test Notes</text>
      <text x="0" y="25" class="metadata-label">• Performance measurements use Node.js performance.now() with microsecond precision</text>
      <text x="0" y="42" class="metadata-label">• Each test includes warm-up iterations to minimize JIT compilation effects</text>
      <text x="0" y="59" class="metadata-label">• Logging is mocked during timing tests to eliminate I/O overhead</text>
      <text x="0" y="76" class="metadata-label">• Tests verify both mean performance and consistency (low standard deviation)</text>
      <text x="0" y="93" class="metadata-label">• Statistical analysis ensures reliable performance measurements across all tree sizes</text>
    </g>
  </g>
</svg>